<?xml version="1.0" encoding="UTF-8"?>
<!DOCTYPE svg PUBLIC "-//W3C//DTD SVG 1.1//EN" "http://www.w3.org/Graphics/SVG/1.1/DTD/svg11.dtd">
<!-- Creator: CorelDRAW X6 -->
<svg xmlns="http://www.w3.org/2000/svg" xml:space="preserve" width="32.506mm" height="13.152mm" version="1.1" style="shape-rendering:geometricPrecision; text-rendering:geometricPrecision; image-rendering:optimizeQuality; fill-rule:evenodd; clip-rule:evenodd"
viewBox="0 0 3251 1315"
 xmlns:xlink="http://www.w3.org/1999/xlink">
 <defs>
  <style type="text/css">
   <![CDATA[
    .fil0 {fill:#2B2A29}
    .fil2 {fill:#E31E29}
    .fil1 {fill:#2B2A29;fill-rule:nonzero}
   ]]>
  </style>
 </defs>
 <g id="Layer_x0020_1">
  <metadata id="CorelCorpID_0Corel-Layer"/>
  <path class="fil0" d="M3145 192c-44,0 -79,-36 -79,-86 0,-49 35,-85 79,-85 43,0 78,36 78,85 0,50 -35,86 -78,86zm17 -86l0 -1c14,-2 26,-10 26,-25 0,-23 -22,-27 -39,-27l-46 0 0 104 27 0 0 -40 11 0c14,0 15,5 16,18 0,7 1,15 3,22l30 0c-3,-9 -4,-17 -5,-25 -2,-17 -5,-26 -23,-26zm86 0l0 0c0,64 -49,105 -103,105 -54,0 -103,-41 -103,-105 0,-63 49,-104 103,-104 54,0 103,41 103,104zm-107 -9l-11 0 0 -24 11 0c9,0 18,1 18,12 0,11 -9,12 -18,12z"/>
  <g id="_689944448">
   <path class="fil1" d="M2140 1315l0 -653 316 0c43,0 75,3 97,9 23,7 43,17 61,32 18,15 32,33 41,56 10,22 15,46 15,72 0,38 -9,69 -28,94 -19,25 -47,43 -83,52 42,9 74,26 95,53 21,26 32,61 32,103 0,60 -19,105 -58,135 -39,31 -96,47 -171,47l-317 0zm185 -144l98 0c22,0 39,-5 52,-16 12,-10 18,-25 18,-44 0,-19 -6,-33 -18,-44 -13,-10 -30,-16 -52,-16l-98 0 0 120zm0 -259l95 0c20,0 35,-5 46,-14 11,-10 17,-23 17,-40 0,-18 -6,-31 -17,-41 -11,-9 -26,-14 -46,-14l-95 0 0 109z"/>
   <polygon class="fil1" points="1402,16 752,664 1402,1315 1037,1315 389,664 1037,16 "/>
   <polygon class="fil2" points="648,1056 908,1315 0,1315 0,16 908,16 648,275 259,275 259,1056 "/>
   <polygon class="fil1" points="1532,1315 1714,1315 1714,1155 1778,1065 1895,1315 2110,1315 1906,904 2070,664 1888,664 1714,935 1714,664 1532,664 "/>
   <polygon class="fil1" points="2758,1315 3251,1315 3251,1163 2947,1163 2947,1054 3194,1054 3194,913 2947,913 2947,816 3246,816 3246,664 2758,664 "/>
  </g>
 </g>
</svg>
