<?xml version="1.0" encoding="UTF-8"?>
<!DOCTYPE svg PUBLIC "-//W3C//DTD SVG 1.1//EN" "http://www.w3.org/Graphics/SVG/1.1/DTD/svg11.dtd">
<!-- Creator: CorelDRAW X6 -->
<svg xmlns="http://www.w3.org/2000/svg" xml:space="preserve" width="61.03mm" height="8.6mm" version="1.1" style="shape-rendering:geometricPrecision; text-rendering:geometricPrecision; image-rendering:optimizeQuality; fill-rule:evenodd; clip-rule:evenodd"
viewBox="0 0 6103 860"
 xmlns:xlink="http://www.w3.org/1999/xlink">
 <defs>
  <style type="text/css">
   <![CDATA[
    .fil0 {fill:#2B2A29}
   ]]>
  </style>
 </defs>
 <g id="Layer_x0020_1">
  <metadata id="CorelCorpID_0Corel-Layer"/>
  <path class="fil0" d="M563 202l-200 0 -193 283 -1 0 0 -283 -169 0 0 644 169 0 0 -343 1 0 201 343 209 0 -227 -361 210 -283zm253 657l3 0c200,-1 313,-123 313,-335 0,-213 -114,-336 -315,-336 -201,0 -315,123 -315,336 0,212 113,334 314,335zm4675 0l7 0c140,0 168,-14 302,-35l0 -344 -292 0 0 125 123 0 0 119c-25,5 -56,10 -87,10 -121,0 -181,-84 -181,-210 0,-105 40,-211 154,-211 55,0 102,19 110,82l169 0c-3,-188 -158,-211 -305,-207 -189,7 -305,134 -305,336 0,201 115,329 305,335zm-4674 -125c-114,0 -138,-112 -138,-208 0,-100 24,-213 138,-213 115,0 138,113 138,213 0,96 -23,208 -138,208zm-39 -728l-143 0 0 129 143 0 0 -129zm221 0l-143 0 0 129 143 0 0 -129zm542 632l-2 0 -99 -436 -262 0 0 644 142 0 0 -543 2 -2 134 545 151 0 142 -541 2 2 0 539 147 0 0 -644 -261 0 -96 436zm783 0l-2 0 -99 -436 -267 0 0 644 148 0 0 -543 1 -2 134 545 152 0 142 -541 2 2 0 539 147 0 0 -644 -262 0 -96 436zm416 208l463 0 0 -125 -294 0 0 -137 271 0 0 -124 -271 0 0 -133 294 0 0 -125 -463 0 0 644zm868 -317l0 -3c85,-11 155,-62 155,-158 0,-137 -133,-166 -235,-166l-281 0 0 644 168 0 0 -246 63 0c86,0 89,32 96,109 4,46 9,92 18,137l183 0c-14,-52 -24,-103 -28,-156 -11,-100 -31,-158 -139,-161zm-128 -54l-65 0 0 -148 65 0c54,0 106,8 106,74 0,66 -52,74 -106,74zm513 -273l-168 0 0 644 444 0 0 -125 -276 0 0 -519zm325 644l168 0 0 -644 -168 0 0 644zm666 -166l-2 2 -203 -480 -236 0 0 644 151 0 0 -494 2 0 206 494 233 0 0 -644 -151 0 0 478zm989 -246c-54,0 -97,-45 -97,-107 0,-61 43,-106 97,-106 54,0 98,45 98,106 0,62 -44,107 -98,107zm22 -107l0 -1c18,-2 32,-13 32,-32 0,-27 -27,-33 -48,-33l-58 0 0 129 35 0 0 -49 12 0c18,0 19,6 20,22 1,9 2,18 4,27l37 0c-3,-10 -5,-20 -5,-31 -3,-20 -7,-32 -29,-32zm107 0l0 0c0,79 -61,131 -128,131 -68,0 -129,-52 -129,-131 0,-79 61,-129 129,-129 67,0 128,50 128,129zm-133 -11l-13 0 0 -30 13 0c11,0 22,1 22,15 0,13 -11,15 -22,15z"/>
 </g>
</svg>
