<svg version="1.2" xmlns="http://www.w3.org/2000/svg" viewBox="0 0 62 10" width="62" height="10"><defs><clipPath clipPathUnits="userSpaceOnUse" id="cp1"><path d="m-16.98-1h12.88v12.88h-12.88z"/></clipPath></defs><style>.a{fill:#2b2a29}</style><path fill-rule="evenodd" class="a" d="m3.6 5.5l2.3 3.6h-2.1l-2-3.4h-0.1v3.4h-1.7v-6.5h1.7v2.9h0.1l1.9-2.9h2zm1.5 0.4c0-2.1 1.2-3.4 3.2-3.4 2 0 3.2 1.3 3.2 3.4 0 2.2-1.2 3.4-3.2 3.4-2 0-3.2-1.2-3.2-3.4zm47.3 0c0-2 1.2-3.3 3.1-3.4 1.5 0 3.1 0.2 3.1 2.1h-1.7c-0.1-0.6-0.6-0.8-1.1-0.8-1.2 0-1.6 1.1-1.6 2.1 0 1.3 0.6 2.2 1.9 2.2 0.3 0 0.6-0.1 0.8-0.2v-1.2h-1.2v-1.2h2.9v3.5c-1.3 0.2-1.6 0.3-3 0.3h-0.1c-1.9-0.1-3.1-1.3-3.1-3.4zm-42.7 0.1c0-1.1-0.2-2.2-1.4-2.2-1.1 0-1.4 1.1-1.4 2.2 0 0.9 0.3 2.1 1.4 2.1 1.2 0 1.4-1.2 1.4-2.1zm-1.8-4h-1.4v-1.3h1.4zm2.2 0h-1.4v-1.3h1.4zm6.5 0.7h2.6v6.5h-1.5v-5.5l-1.4 5.5h-1.5l-1.4-5.5v5.5h-1.4v-6.5h2.6l1 4.4zm7.9 0h2.7v6.5h-1.5v-5.5l-1.5 5.5h-1.5l-1.4-5.5v5.5h-1.4v-6.5h2.6l1 4.4h0.1zm3.2 0h4.7v1.2h-3v1.4h2.7v1.2h-2.7v1.4h3v1.3h-4.7zm10.2 4.9q0 0.8 0.3 1.6h-1.9q-0.1-0.7-0.2-1.4c0-0.8-0.1-1.1-0.9-1.1h-0.7v2.5h-1.7v-6.5h2.9c1 0 2.3 0.3 2.3 1.6 0 1-0.7 1.5-1.5 1.6v0.1c1.1 0 1.3 0.6 1.4 1.6zm-1.7-2.9c0-0.7-0.5-0.8-1-0.8h-0.7v1.5h0.7c0.5 0 1-0.1 1-0.7zm4.2 3.2h2.7v1.3h-4.4v-6.5h1.7zm3.2-5.3h1.7v6.5h-1.7zm6.8 0h1.5v6.5h-2.4l-2-4.9h-0.1v4.9h-1.5v-6.5h2.4l2 4.9h0.1zm11.3 1.2c0 0.8-0.7 1.3-1.3 1.3-0.7 0-1.3-0.5-1.3-1.3 0-0.8 0.6-1.3 1.3-1.3 0.6 0 1.3 0.5 1.3 1.3zm-0.4 0c0-0.6-0.4-1-0.9-1-0.6 0-1 0.4-1 1 0 0.7 0.4 1.1 1 1.1 0.5 0 0.9-0.4 0.9-1.1zm-0.4 0.3q0 0.2 0 0.4h-0.4q0-0.2 0-0.3c0-0.2 0-0.2-0.2-0.2h-0.1v0.5h-0.4v-1.3h0.6c0.2 0 0.5 0 0.5 0.3 0 0.2-0.1 0.3-0.3 0.3 0.2 0 0.2 0.1 0.3 0.3zm-0.4-0.5c0-0.2-0.1-0.2-0.2-0.2h-0.1v0.3h0.1c0.1 0 0.2 0 0.2-0.1z"/><g clip-path="url(#cp1)"></g></svg>