<?xml version="1.0" encoding="UTF-8"?>
<!DOCTYPE svg PUBLIC "-//W3C//DTD SVG 1.1//EN" "http://www.w3.org/Graphics/SVG/1.1/DTD/svg11.dtd">
<!-- Creator: CorelDRAW X6 -->
<svg xmlns="http://www.w3.org/2000/svg" xml:space="preserve" width="78.67mm" height="12.887mm" version="1.1" style="shape-rendering:geometricPrecision; text-rendering:geometricPrecision; image-rendering:optimizeQuality; fill-rule:evenodd; clip-rule:evenodd"
viewBox="0 0 7867 1289"
 xmlns:xlink="http://www.w3.org/1999/xlink">
 <defs>
  <style type="text/css">
   <![CDATA[
    .fil0 {fill:#2B2A29}
   ]]>
  </style>
    <clipPath id="id0">
     <rect x="1" width="1288" height="1288"/>
    </clipPath>
 </defs>
 <g id="Layer_x0020_1">
  <metadata id="CorelCorpID_0Corel-Layer"/>
  <g id="_700510944">
   <path class="fil0" d="M2271 364l-202 0 -194 285 -2 0 0 -285 -170 0 0 650 170 0 0 -346 2 0 202 346 211 0 -229 -364 212 -286zm255 664l3 0c203,-1 317,-125 317,-339 0,-214 -115,-339 -318,-339 -203,0 -318,125 -318,339 0,214 114,338 316,339zm4723 0l7 0c142,-1 169,-14 305,-35l0 -348 -295 0 0 126 125 0 0 120c-26,5 -57,11 -89,11 -122,0 -182,-85 -182,-213 0,-105 41,-213 155,-213 56,0 103,19 112,82l170 0c-3,-189 -159,-212 -308,-208 -191,7 -308,135 -308,339 0,203 116,332 308,339zm-4721 -126c-116,0 -140,-114 -140,-210 0,-102 24,-216 140,-216 115,0 139,114 139,216 0,96 -24,210 -139,210zm-39 -736l-145 0 0 130 145 0 0 -130zm222 0l-144 0 0 130 144 0 0 -130zm548 638l-2 0 -100 -440 -265 0 0 650 144 0 0 -548 2 -2 135 550 153 0 143 -546 2 2 0 544 149 0 0 -650 -264 0 -97 440zm791 0l-2 0 -100 -440 -269 0 0 650 148 0 0 -548 2 -2 135 550 153 0 144 -546 2 2 0 544 148 0 0 -650 -264 0 -97 440zm420 210l468 0 0 -126 -297 0 0 -138 273 0 0 -126 -273 0 0 -134 297 0 0 -126 -468 0 0 650zm877 -320l0 -3c86,-11 157,-62 157,-160 0,-137 -135,-167 -238,-167l-284 0 0 650 170 0 0 -248 64 0c86,0 90,32 96,110 5,46 10,93 19,138l185 0c-15,-52 -24,-103 -28,-157 -11,-101 -32,-160 -141,-163zm-129 -55l-66 0 0 -149 66 0c54,0 107,8 107,75 0,66 -53,74 -107,74zm518 -275l-170 0 0 650 448 0 0 -126 -278 0 0 -524zm328 650l170 0 0 -650 -170 0 0 650zm673 -167l-2 1 -206 -484 -238 0 0 650 153 0 0 -498 2 0 208 498 236 0 0 -650 -153 0 0 483zm999 -249c-55,0 -99,-45 -99,-108 0,-62 44,-107 99,-107 55,0 99,45 99,107 0,63 -44,108 -99,108zm22 -108l0 -1c18,-2 32,-13 32,-32 0,-28 -27,-34 -48,-34l-59 0 0 131 35 0 0 -50 13 0c18,0 19,7 20,22 1,10 2,19 4,28l38 0c-3,-10 -5,-21 -6,-32 -2,-20 -6,-32 -29,-32zm108 0l0 0c0,80 -61,132 -130,132 -68,0 -129,-52 -129,-132 0,-79 61,-131 129,-131 69,0 130,52 130,131zm-134 -11l-14 0 0 -30 14 0c11,0 22,1 22,15 0,13 -11,15 -22,15z"/>
   <g style="clip-path:url(#id0)">
    <image id="logo-Kommerling.jpg" x="1" y="0" width="1288" height="1288" xlink:href="logo-4_Images\logo-4_ImgID1.png"/>
   </g>
  </g>
 </g>
</svg>
